<?xml version="1.0" standalone="no"?>
<!DOCTYPE svg PUBLIC "-//W3C//DTD SVG 20010904//EN"
 "http://www.w3.org/TR/2001/REC-SVG-20010904/DTD/svg10.dtd">
<svg version="1.0" xmlns="http://www.w3.org/2000/svg"
 width="932.000000pt" height="114.000000pt" viewBox="0 0 932.000000 114.000000"
 preserveAspectRatio="xMidYMid meet">
<metadata>
Created by potrace 1.10, written by Peter Selinger 2001-2011
</metadata>
<g transform="translate(0.000000,114.000000) scale(0.100000,-0.100000)"
fill="#444444" stroke="none">
<path d="M176 1093 c-4 -5 -14 -22 -21 -39 -11 -27 -16 -30 -49 -26 -22 3 -36
0 -36 -7 0 -6 17 -11 39 -11 31 0 41 -4 46 -20 7 -21 0 -33 -39 -78 -11 -12
-22 -35 -24 -50 -2 -15 -7 -28 -13 -30 -13 -5 -11 -22 4 -22 6 0 21 -12 31
-27 l19 -26 -32 5 c-18 3 -31 0 -31 -6 0 -7 22 -10 61 -8 66 4 79 -3 79 -45 0
-12 -9 -27 -21 -33 -23 -13 -41 -4 -20 10 19 11 6 40 -19 40 -15 0 -20 -7 -20
-25 0 -28 39 -59 62 -50 22 9 37 47 31 78 l-5 27 135 0 c111 0 136 -3 141 -15
7 -19 37 -19 62 0 16 12 104 14 591 15 l573 0 -7 -45 c-5 -38 -3 -45 11 -45
12 0 16 10 16 45 l0 45 110 0 110 0 0 -30 c0 -16 5 -30 10 -30 6 0 10 14 10
30 l0 30 240 0 c205 0 241 -2 246 -15 8 -20 24 -19 24 0 0 13 16 15 108 13
l107 -3 -3 -27 c-3 -20 1 -28 12 -28 11 0 16 9 16 30 l0 30 110 0 110 0 0 -45
c0 -25 5 -45 10 -45 6 0 10 20 10 45 l0 45 520 0 c468 0 580 -5 493 -23 -16
-3 -36 -12 -45 -19 -16 -12 -16 -15 3 -37 l20 -24 47 23 c25 13 41 25 34 28
-7 2 -12 15 -12 28 l0 24 198 0 197 0 -2 132 -2 133 -45 8 c-26 4 -206 6 -401
5 -279 -2 -355 0 -355 10 0 6 -7 12 -15 12 -8 0 -15 -6 -15 -12 0 -10 -38 -13
-155 -13 l-155 0 0 33 c0 17 -4 32 -10 32 -5 0 -10 -15 -10 -32 l0 -33 -845 0
-845 0 0 33 c0 23 -4 32 -12 29 -7 -2 -13 -16 -13 -31 l0 -27 -153 -2 c-116
-2 -152 1 -152 11 0 6 -7 12 -15 12 -8 0 -15 -6 -15 -12 0 -10 -105 -13 -494
-13 l-494 0 -8 34 c-9 35 -24 48 -38 34z m29 -43 c4 -6 1 -18 -7 -27 -7 -9
-12 -18 -10 -20 6 -8 1 -23 -7 -23 -9 0 -12 58 -4 73 6 10 21 9 28 -3z m141
-56 c-3 -9 -6 -20 -6 -25 0 -5 -31 -9 -70 -9 l-70 0 12 25 c10 23 17 25 76 25
54 0 63 -2 58 -16z m634 -9 l0 -25 -200 0 c-171 0 -200 2 -200 15 0 8 -4 15
-10 15 -5 0 -10 -7 -10 -15 0 -12 -16 -15 -81 -15 -54 0 -78 -3 -74 -11 4 -6
36 -9 78 -8 69 2 72 2 72 -21 0 -23 -2 -23 -75 -21 -41 1 -78 5 -82 7 -4 3 -8
19 -8 35 0 37 -23 35 -28 -2 -5 -37 -17 -43 -78 -40 -41 2 -54 -1 -49 -9 5 -8
33 -11 84 -9 42 2 113 2 159 1 80 -2 82 -3 82 -27 0 -25 -1 -25 -81 -25 -54 0
-78 -3 -74 -11 4 -6 35 -9 73 -8 37 1 68 -2 70 -7 2 -5 -5 -11 -15 -13 -10 -1
-25 -10 -34 -18 -11 -9 -33 -13 -60 -11 -43 3 -44 4 -47 41 -4 47 -25 45 -32
-4 l-5 -34 -65 -3 c-52 -2 -67 0 -77 14 -7 10 -13 12 -13 6 0 -16 -42 -15 -64
1 -29 21 -25 82 7 115 24 24 27 25 27 7 0 -11 -7 -29 -15 -39 -19 -25 -19 -50
-1 -65 11 -9 12 -6 8 14 -3 19 1 27 19 34 35 13 52 -5 45 -49 l-5 -35 19 23
c19 22 80 32 80 12 0 -5 5 -10 10 -10 6 0 10 6 10 14 0 7 9 25 20 39 23 30 25
37 7 37 -8 0 -19 -11 -25 -25 -9 -20 -19 -25 -50 -25 -32 0 -41 5 -50 25 -7
14 -23 30 -38 35 -19 7 -25 16 -22 33 3 21 7 22 68 19 36 -2 67 -8 68 -13 5
-13 22 -11 22 3 0 6 10 27 23 45 l22 33 298 0 297 0 0 -25z m235 0 l0 -25
-112 0 -113 0 0 25 0 25 113 0 112 0 0 -25z m167 0 c5 -25 5 -25 -68 -25 -72
0 -74 1 -74 25 0 24 2 25 69 25 65 0 69 -1 73 -25z m168 0 c0 -24 -2 -25 -74
-25 -72 0 -73 1 -73 25 0 24 1 25 73 25 72 0 74 -1 74 -25z m820 0 l0 -25
-400 0 -400 0 0 25 0 25 400 0 400 0 0 -25z m892 0 l-4 -25 -351 0 c-321 0
-351 1 -363 18 -12 16 -14 16 -44 0 -18 -10 -49 -18 -71 -18 -35 0 -39 3 -39
25 l0 25 439 0 438 0 -5 -25z m168 0 c0 -24 -2 -25 -75 -25 -73 0 -75 1 -75
25 0 24 2 25 75 25 73 0 75 -1 75 -25z m160 0 c0 -24 -2 -25 -70 -25 -68 0
-70 1 -70 25 0 24 2 25 70 25 68 0 70 -1 70 -25z m760 0 l0 -25 -367 0 -368 0
0 25 0 25 368 0 367 0 0 -25z m40 -100 c0 -77 -4 -125 -10 -125 -13 0 -12 -5
-15 133 -2 94 0 117 11 117 11 0 14 -26 14 -125z m-3175 15 c1 -30 -3 -43 -14
-47 -9 -2 -24 -9 -33 -14 -10 -5 -54 -9 -97 -9 l-80 0 1 53 c0 28 2 54 3 57 2
3 52 4 111 3 l108 -2 1 -41z m173 22 c-3 -14 -17 -18 -71 -20 -88 -4 -87 -22
2 -22 67 0 69 -1 67 -25 -1 -24 -3 -25 -80 -25 -67 0 -77 2 -72 16 3 9 6 34 6
57 l0 42 76 -3 c64 -3 75 -6 72 -20z m160 -6 c3 -22 -1 -26 -21 -26 -18 0 -29
-8 -39 -30 -11 -26 -18 -30 -50 -30 l-37 0 3 58 c2 31 4 57 5 57 124 0 136 -2
139 -29z m414 4 c-7 -20 -15 -22 -80 -23 -49 -2 -73 2 -77 11 -6 15 -62 16
-67 0 -3 -7 -30 -10 -81 -9 -49 1 -77 -2 -77 -8 0 -7 28 -11 70 -11 68 0 70
-1 70 -25 0 -25 -1 -25 -79 -25 -44 0 -83 -4 -86 -10 -4 -6 25 -10 79 -10 85
0 86 0 86 -25 l0 -26 -157 3 c-153 3 -156 3 -159 26 -3 19 1 22 29 22 76 0
105 11 121 45 9 18 16 45 16 59 l0 26 198 2 c108 2 198 3 200 2 1 -1 -1 -11
-6 -24z m408 3 l0 -28 -165 0 c-133 0 -164 3 -160 13 3 8 5 18 5 23 0 4 71 10
158 12 86 1 158 4 160 5 1 1 2 -10 2 -25z m98 -2 c-3 -22 -7 -25 -30 -23 -16
2 -28 -1 -28 -7 0 -6 14 -11 30 -11 25 0 30 -4 30 -25 0 -22 -4 -25 -40 -25
l-39 0 3 58 c2 31 4 57 5 57 1 0 17 0 37 1 32 0 35 -2 32 -25z m262 21 c0 -1
-7 -13 -15 -26 -9 -13 -15 -28 -14 -32 1 -5 1 -19 0 -31 -1 -22 -4 -23 -106
-23 -93 0 -105 2 -106 18 0 9 -2 29 -4 45 -3 20 1 27 14 27 9 0 25 6 34 13 15
10 197 19 197 9z m536 -25 c-1 -15 -8 -23 -26 -25 -27 -4 -52 -31 -45 -49 3
-10 -24 -13 -115 -13 -66 0 -120 4 -120 8 0 5 18 16 41 26 44 20 50 49 11 54
-32 5 -62 -25 -62 -60 l0 -28 -110 0 -110 0 0 29 0 29 105 -6 c80 -4 105 -2
105 8 0 9 -21 11 -80 8 -44 -2 -80 -2 -80 -1 0 1 4 12 9 25 l9 23 234 -3 235
-3 -1 -22z m164 3 c0 -16 -10 -19 -71 -22 -72 -3 -88 4 -76 35 3 8 25 11 76 9
61 -3 71 -6 71 -22z m162 -13 c3 -35 1 -39 -37 -57 -23 -11 -56 -20 -73 -20
-27 0 -32 4 -32 25 0 24 2 25 65 25 40 0 65 4 65 11 0 7 -23 10 -65 7 -64 -3
-65 -2 -65 22 0 24 2 25 69 25 l69 0 4 -38z m758 13 l0 -25 -155 3 c-103 2
-155 -1 -155 -8 0 -6 54 -10 155 -10 l155 0 0 -25 0 -25 -160 0 -160 0 0 45
c0 25 -4 45 -10 45 -5 0 -10 -4 -10 -10 0 -6 -70 -10 -190 -10 -120 0 -190 -4
-190 -10 0 -6 70 -10 190 -10 l190 0 0 -25 0 -25 -197 2 -198 3 0 50 c0 28 0
52 1 55 1 3 167 5 368 5 l366 0 0 -25z m-3372 -1 c-3 -19 -10 -20 -201 -22
l-197 -2 0 23 0 22 201 0 c196 0 200 0 197 -21z m1052 11 c0 -12 -40 -33 -48
-25 -4 4 2 13 12 21 23 16 36 18 36 4z m183 -50 l157 0 0 -25 0 -25 -195 0
-195 0 0 24 c0 26 20 37 55 30 11 -2 91 -4 178 -4z m1217 -25 c0 -23 -3 -24
-86 -27 -47 -2 -88 0 -91 5 -2 4 0 7 6 7 6 0 13 10 16 23 6 21 10 22 80 19 71
-3 75 -5 75 -27z m-2450 0 l0 -25 -200 0 -200 0 0 25 0 25 200 0 200 0 0 -25z
m980 1 c0 -25 -1 -25 -110 -28 -61 -2 -110 0 -110 5 0 4 -1 10 -2 14 -2 3 5 7
16 9 10 1 23 7 29 13 6 6 48 11 94 11 81 0 83 0 83 -24z m1621 -37 c-20 -19
-41 -25 -41 -13 0 4 10 15 21 25 28 24 47 13 20 -12z m-2661 -8 c0 -6 -4 -12
-10 -16 -5 -3 -7 -12 -3 -20 4 -13 -19 -15 -161 -15 l-166 0 0 25 0 25 163 3
c89 1 165 4 170 5 4 1 7 -2 7 -7z m238 -14 c19 -9 29 -8 50 3 19 11 50 14 103
12 75 -3 76 -3 71 -27 l-4 -25 -212 0 c-116 0 -206 4 -200 8 6 4 16 16 21 27
10 18 19 20 79 17 38 -1 80 -8 92 -15z m1547 -10 c-2 -21 -7 -22 -107 -25
l-106 -3 -4 25 c-3 14 -4 27 -2 28 1 2 51 2 111 0 106 -3 110 -4 108 -25z
m656 23 c67 0 69 -1 69 -25 l0 -25 -229 0 -229 0 -4 25 -5 24 121 4 c67 2 141
2 165 0 24 -2 75 -3 112 -3z m989 -25 l0 -25 -160 0 -160 0 0 28 0 27 160 -3
160 -3 0 -24z m-2390 0 l0 -25 -110 0 -110 0 0 25 0 25 110 0 110 0 0 -25z
m410 0 l0 -25 -195 0 -195 0 0 25 0 25 195 0 195 0 0 -25z m98 3 c-2 -19 -9
-23 -38 -23 -29 0 -36 4 -38 23 -3 20 1 22 38 22 37 0 41 -2 38 -22z m482 -3
l0 -25 -110 0 -110 0 0 25 0 25 110 0 110 0 0 -25z m585 9 c11 -15 14 -15 43
0 25 13 66 16 232 16 l200 0 0 -25 0 -25 -280 0 -280 0 0 25 c0 22 4 25 36 25
22 0 41 -6 49 -16z m-2975 -20 c0 -11 -45 -42 -53 -37 -4 3 2 13 14 24 22 19
39 25 39 13z m3450 -61 c0 -12 -33 -43 -47 -43 -19 0 -16 9 10 31 23 19 37 24
37 12z"/>
<path d="M180 820 c0 -5 7 -10 15 -10 8 0 15 5 15 10 0 6 -7 10 -15 10 -8 0
-15 -4 -15 -10z"/>
<path d="M1010 890 c0 -6 38 -10 95 -10 57 0 95 4 95 10 0 6 -38 10 -95 10
-57 0 -95 -4 -95 -10z"/>
<path d="M1420 890 c0 -5 13 -10 29 -10 17 0 33 5 36 10 4 6 -8 10 -29 10 -20
0 -36 -4 -36 -10z"/>
<path d="M2505 890 c-4 -6 28 -10 89 -10 57 0 96 4 96 10 0 6 -36 10 -89 10
-50 0 -93 -4 -96 -10z"/>
<path d="M3050 890 c0 -6 30 -10 69 -10 39 0 73 5 76 10 4 6 -22 10 -69 10
-44 0 -76 -4 -76 -10z"/>
<path d="M70 950 c0 -5 11 -10 24 -10 14 0 28 5 31 10 4 6 -7 10 -24 10 -17 0
-31 -4 -31 -10z"/>
<path fill="#228B22" stroke="none" d="M71 894 c0 -11 3 -14 6 -6 3 7 2 16 -1 19 -3 4 -6 -2 -5 -13z"/>
</g>
</svg>
