<?xml version="1.0" standalone="no"?>
<!DOCTYPE svg PUBLIC "-//W3C//DTD SVG 20010904//EN"
 "http://www.w3.org/TR/2001/REC-SVG-20010904/DTD/svg10.dtd">
<svg version="1.0" xmlns="http://www.w3.org/2000/svg"
 width="932.000000pt" height="114.000000pt" viewBox="0 0 932.000000 114.000000"
 preserveAspectRatio="xMidYMid meet">
<metadata>
Created by potrace 1.16, written by Peter Selinger 2001-2019
</metadata>
<g transform="translate(0.000000,114.000000) scale(0.100000,-0.100000)"
fill="#000000" stroke="none">
<path d="M6778 1004 c-5 -4 -8 -29 -8 -56 0 -35 -4 -50 -16 -55 -15 -5 -15 -7
0 -15 19 -11 22 -98 4 -116 -9 -9 -9 -15 0 -24 7 -7 12 -28 12 -48 0 -46 -15
-60 -60 -60 -49 0 -90 -50 -90 -110 0 -63 96 -67 138 -6 34 50 39 79 35 223
-2 84 1 134 8 138 6 5 7 11 0 19 -5 6 -11 36 -13 65 -2 29 -6 49 -10 45z"/>
<path d="M3212 953 c-1 -28 -7 -55 -12 -58 -8 -5 -8 -11 -1 -19 6 -7 10 -60 8
-127 l-2 -114 -43 -3 c-37 -3 -46 -8 -67 -42 -14 -23 -25 -55 -25 -74 0 -32 3
-36 34 -41 68 -13 106 16 132 103 14 49 14 55 0 71 -23 25 -20 67 6 85 l22 16
-22 16 c-31 21 -31 88 -1 105 l21 11 -20 21 c-11 12 -22 40 -25 62 -3 36 -4
35 -5 -12z"/>
<path d="M441 949 c-1 -9 -10 -28 -21 -42 -11 -14 -18 -31 -15 -39 6 -19 -31
-60 -52 -56 -12 2 -19 -4 -21 -20 -2 -12 -12 -27 -23 -32 -10 -6 -19 -16 -19
-21 0 -6 -22 -37 -48 -68 -46 -53 -48 -59 -51 -122 -2 -56 2 -72 22 -102 l25
-36 5 36 c4 20 2 42 -3 48 -18 21 10 84 59 136 26 27 50 46 54 43 13 -14 7
-40 -19 -78 -15 -22 -32 -58 -39 -80 -11 -36 -10 -43 6 -59 17 -18 18 -18 29
2 6 12 8 26 4 32 -23 37 95 67 122 31 19 -26 27 -88 14 -111 -6 -12 -8 -21 -5
-21 12 0 43 36 49 58 4 12 12 22 17 22 6 0 5 7 0 18 -6 9 -17 34 -26 54 -23
51 -60 88 -88 88 -52 0 -63 55 -20 98 15 15 28 37 29 49 1 12 11 41 21 65 17
37 17 48 7 83 -7 22 -13 33 -13 24z"/>
<path d="M2522 907 c-21 -23 -21 -23 -2 -37 25 -18 27 -76 3 -102 -15 -17 -15
-19 0 -36 21 -23 21 -51 2 -88 -13 -25 -13 -30 0 -44 13 -15 13 -19 -3 -33
-10 -10 -29 -17 -41 -17 -29 0 -70 -22 -98 -52 l-22 -23 25 -33 c32 -41 61
-41 122 -1 l47 30 -2 127 c-1 78 3 132 9 140 8 9 8 16 0 24 -14 14 -16 82 -3
106 6 11 5 25 -3 40 l-12 23 -22 -24z"/>
<path d="M7446 908 c-14 -19 -14 -24 -1 -38 20 -22 19 -70 -1 -98 -15 -21 -15
-25 0 -41 18 -20 21 -66 6 -76 -13 -8 -13 -52 0 -60 6 -4 3 -15 -7 -30 -13
-17 -24 -22 -41 -18 -14 3 -35 -3 -56 -18 -45 -31 -57 -51 -41 -72 11 -15 17
-12 59 28 51 49 58 52 75 31 10 -12 8 -17 -11 -27 -13 -7 -33 -23 -45 -36 -12
-12 -29 -23 -38 -23 -9 0 -13 -4 -10 -10 12 -19 60 -10 105 21 l45 31 -2 199
c-1 109 2 201 7 204 9 5 -10 55 -22 55 -4 0 -14 -10 -22 -22z"/>
<path d="M9046 891 c-40 -5 -47 -8 -35 -18 10 -8 20 -9 29 -3 33 21 40 11 40
-50 l0 -61 -37 3 c-28 2 -38 -1 -38 -12 0 -11 10 -14 38 -13 l37 2 0 -53 c0
-63 -6 -71 -33 -45 -24 22 -40 12 -35 -22 3 -23 6 -24 51 -12 15 5 17 -2 17
-56 0 -52 -3 -61 -18 -61 -10 0 -23 5 -29 11 -8 8 -14 6 -22 -9 -13 -25 6 -46
29 -32 33 21 40 11 40 -54 0 -55 3 -66 20 -71 10 -3 28 -1 40 5 19 10 20 19
20 270 0 222 -2 261 -16 274 -8 9 -23 15 -32 14 -9 0 -39 -4 -66 -7z"/>
<path d="M2013 879 c20 -12 24 -98 5 -117 -8 -8 -8 -15 -1 -24 15 -19 14 -231
0 -240 -7 -4 -30 -8 -52 -8 -49 0 -56 -5 -74 -50 -15 -40 -16 -79 0 -95 14
-14 101 -13 106 2 2 6 13 22 24 34 11 13 23 36 26 52 3 15 10 30 14 33 5 3 5
12 0 22 -12 24 -11 374 1 390 8 9 1 12 -28 12 -31 -1 -36 -3 -21 -11z"/>
<path d="M717 840 c-9 -22 -17 -46 -17 -54 0 -7 -9 -20 -19 -27 -16 -11 -17
-19 -10 -39 l10 -25 17 22 c9 12 22 19 27 15 14 -9 16 -64 3 -79 -17 -20 1
-33 47 -33 44 0 68 16 45 30 -9 5 -11 24 -8 59 6 57 -9 88 -36 78 -19 -7 -22
13 -5 30 17 17 2 63 -19 63 -11 0 -24 -15 -35 -40z"/>
<path d="M5141 785 c-37 -34 -38 -37 -28 -70 7 -25 7 -45 0 -70 -7 -21 -7 -37
-2 -41 16 -9 11 -100 -7 -115 -14 -11 -14 -13 0 -21 19 -11 22 -98 4 -116 -10
-10 -7 -17 10 -34 26 -27 23 -49 25 187 l2 169 33 7 c42 9 112 57 112 78 0 36
-30 61 -71 61 -31 0 -47 -7 -78 -35z"/>
<path d="M1159 773 c0 -10 0 -90 -1 -178 0 -157 -6 -189 -33 -179 -21 8 -82
-22 -100 -50 -14 -21 -15 -29 -5 -41 10 -13 15 -12 36 3 13 9 24 23 24 30 0
15 48 35 67 28 22 -9 14 -27 -17 -37 -16 -6 -30 -17 -30 -25 0 -8 -12 -20 -27
-26 l-28 -12 32 -4 c29 -3 102 32 116 55 2 4 1 32 -2 61 -6 38 -4 55 5 63 11
9 11 16 0 38 -22 44 -27 88 -11 95 20 7 19 50 0 66 -17 14 -12 45 13 73 14 15
13 19 -3 37 -22 25 -35 26 -36 3z"/>
<path d="M4103 754 c-7 -3 -13 -13 -13 -23 0 -9 -4 -21 -9 -26 -14 -17 -29
-92 -20 -106 7 -11 14 -11 38 4 16 9 45 17 65 17 44 0 68 31 70 93 l1 42 -60
2 c-33 1 -66 -1 -72 -3z"/>
<path d="M5650 751 c-8 -6 -11 -13 -7 -17 4 -4 1 -14 -7 -23 -32 -37 -42 -121
-15 -121 16 0 10 -48 -11 -85 -20 -35 -20 -35 0 -47 25 -16 26 -47 3 -86 -16
-29 -16 -32 -1 -49 10 -11 15 -27 12 -40 -3 -11 -1 -24 5 -27 7 -5 11 4 11 24
0 17 5 40 10 50 7 13 7 21 0 25 -5 3 -10 28 -10 55 0 27 5 52 10 55 7 4 7 12
0 25 -14 26 -13 103 2 118 7 7 28 12 48 12 55 0 75 23 81 95 l4 40 -60 3 c-33
1 -67 -2 -75 -7z"/>
<path d="M3645 682 c-28 -10 -72 -41 -78 -56 -3 -7 -1 -34 4 -61 8 -42 6 -51
-11 -70 -19 -20 -19 -21 0 -33 26 -16 27 -78 3 -105 -17 -18 -17 -19 0 -32 13
-9 17 -29 19 -86 l1 -74 6 80 c3 44 9 85 14 92 4 6 3 14 -3 18 -12 8 -13 102
-1 109 5 4 4 19 -2 36 -13 35 -1 50 43 50 35 0 100 55 100 85 0 40 -45 63 -95
47z"/>
<path d="M6194 683 c-12 -2 -35 -16 -53 -31 l-31 -27 -1 -145 c-1 -254 1 -310
11 -310 6 0 10 32 10 75 0 60 3 76 17 84 17 9 17 10 0 28 -22 25 -23 98 -2
107 14 5 14 9 -2 32 -16 25 -16 27 2 40 10 8 27 14 38 14 43 0 107 52 107 86
0 13 -10 30 -22 38 -22 16 -33 17 -74 9z"/>
<path d="M8315 660 c-4 -6 -3 -40 0 -75 6 -51 4 -70 -8 -89 -14 -21 -14 -25
-2 -30 18 -6 20 -77 4 -107 -7 -15 -7 -24 0 -33 15 -18 -3 -31 -52 -40 -20 -4
-53 -21 -72 -38 -37 -32 -39 -36 -26 -56 15 -24 93 29 111 75 4 11 9 11 24 0
18 -13 18 -14 1 -28 -28 -23 -95 -89 -95 -94 0 -20 72 7 119 44 l24 19 -1 208
c-1 115 -1 219 -2 232 0 23 -14 30 -25 12z"/>
<path d="M710 548 c-12 -29 -29 -58 -38 -64 -12 -9 -12 -15 -2 -34 l12 -23 18
23 18 23 11 -22 c7 -12 11 -39 9 -59 -3 -37 -3 -37 36 -37 l39 0 0 71 c0 80
-7 98 -34 91 -22 -6 -24 5 -7 32 15 24 4 51 -20 51 -14 0 -26 -15 -42 -52z"/>
</g>
</svg>
